HIERARCHY
ROOT Hips
{
  OFFSET 0.0 0.0 0.0
  CHANNELS 6 XPOSITION YPOSITION ZPOSITION ZROTATION XROTATION YROTATION 
  JOINT RightUpLeg
  {
    OFFSET -0.089458 -0.0866707 0.00101652
    CHANNELS 3 ZROTATION XROTATION YROTATION 
    JOINT RightLeg
    {
      OFFSET 0.0 -0.444227 0.013727
      CHANNELS 3 ZROTATION XROTATION YROTATION 
      JOINT RightFoot
      {
        OFFSET 0.00253549 -0.420924 -0.0146059
        CHANNELS 3 ZROTATION XROTATION YROTATION 
        JOINT RightToes
        {
          OFFSET 0.0004 -0.0441509 0.084991
          CHANNELS 3 ZROTATION XROTATION YROTATION 
          End Site
          {
            OFFSET -0.0008 -0.00137448 0.0977979
          }
        }
      }
    }
  }
  JOINT Spine
  {
    OFFSET 0.0 0.118905 0.0
    CHANNELS 3 ZROTATION XROTATION YROTATION 
    JOINT Spine1
    {
      OFFSET 0.0 0.256574 0.00127663
      CHANNELS 3 ZROTATION XROTATION YROTATION 
      JOINT HEad
      {
        OFFSET 0.0 0.0873416 0.00011341
        CHANNELS 3 ZROTATION XROTATION YROTATION 
        End Site
        {
          OFFSET -0.0029 0.127742 0.0251395
        }
      }
      JOINT LeftShoulder1
      {
        OFFSET 0.0899 -0.00362252 -0.0022
        CHANNELS 3 ZROTATION XROTATION YROTATION 
        JOINT LeftArm
        {
          OFFSET 0.102827 -3.37999e-005 0.00322123
          CHANNELS 3 ZROTATION XROTATION YROTATION 
          JOINT LeftForeArm
          {
            OFFSET 0.262597 0.00099144 -0.0142434
            CHANNELS 3 ZROTATION XROTATION YROTATION 
            JOINT LeftHand
            {
              OFFSET 0.220902 0.00085362 0.0102216
              CHANNELS 3 ZROTATION XROTATION YROTATION 
              End Site
              {
                OFFSET 0.13419 -0.006 0.0150291
              }
            }
          }
        }
      }
      JOINT RightShoulder
      {
        OFFSET -0.0899 -0.00362252 -0.0022
        CHANNELS 3 ZROTATION XROTATION YROTATION 
        JOINT RightArm
        {
          OFFSET -0.102827 -3.38e-005 0.00322123
          CHANNELS 3 ZROTATION XROTATION YROTATION 
          JOINT RightForeArm
          {
            OFFSET -0.26364 0.00099144 -0.0142434
            CHANNELS 3 ZROTATION XROTATION YROTATION 
            JOINT RightHand
            {
              OFFSET -0.220324 0.00085362 0.0102216
              CHANNELS 3 ZROTATION XROTATION YROTATION 
              End Site
              {
                OFFSET -0.133284 -0.006 0.0150291
              }
            }
          }
        }
      }
    }
  }
  JOINT LeftUpLeg
  {
    OFFSET 0.089458 -0.0866707 0.00101652
    CHANNELS 3 ZROTATION XROTATION YROTATION 
    JOINT LeftLeg
    {
      OFFSET 0.0 -0.444227 0.013727
      CHANNELS 3 ZROTATION XROTATION YROTATION 
      JOINT LeftFoot
      {
        OFFSET -0.00253549 -0.420924 -0.0146059
        CHANNELS 3 ZROTATION XROTATION YROTATION 
        JOINT LeftToes
        {
          OFFSET -0.0004 -0.0441509 0.084991
          CHANNELS 3 ZROTATION XROTATION YROTATION 
          End Site
          {
            OFFSET 0.0008 -0.00047448 0.0977979
          }
        }
      }
    }
  }
}
MOTION
Frames: 9
Frame Time: 0.033333
0.727895510607 1.54131 -1.04538355813 0.538463672829 1.46405222253 81.7904839523 1.61426996033 -7.08260990985 3.31842990589 -1.13510999194 50.0518994454 -11.2512997565 2.94974995487 -9.94858972898 -0.141181997836 0.0462047989973 0.000530889001377 0.662642008108 -7.00517989721 9.20844993995 0.378046008001 0.759801022165 4.02571008171 0.0294659997034 -1.72707000086 26.7394000062 -2.66866995472 -31.4516004486 -3.64800019372 13.2124997843 -74.5471981111 -42.6445012339 -38.6259013791 -175.069004579 56.340300935 175.923993999 10.4288997305 8.82740990786 -7.49994983606 30.4749995105 -0.725878994373 -6.08442984284 49.4211007397 -3.66298989763 18.0383007867 2.66411998152 49.9241988136 15.7682993688 -2.81727993002 9.77109018793 1.86350996645 -5.43568011934 -29.8076012361 -0.101482997379 0.981580039279 44.9043990944 10.855800214 3.94952017529 -29.6637984333 0.966635051767 -1.3320499946e-009 8.75209994494e-006 -1.46422003163e-008 
0.740033209702 1.55418 -1.04700502805 0.519110758703 1.07379207539 81.5321730281 1.95729998969 -11.5776000913 3.25111006733 -1.27503997074 55.8414990501 -10.7583001174 0.263964986832 -9.50533008864 -0.184913004368 0.0462047989973 0.000530889001377 0.662642008108 -7.6775697592 9.80654996878 0.163693994515 1.47898002785 4.0080899012 -0.497437021002 -1.99118989425 26.3722995364 -2.01365993596 -31.1073998955 -3.48278005213 12.85950024 -75.0453033167 -41.2025014511 -39.2247996863 -174.997997933 57.8801021966 174.939995966 10.3759999154 8.81221017563 -7.75741040173 30.4851013602 -0.740269989511 -6.12308999421 49.0077991629 -2.64194000941 17.8976996351 2.7206299785 48.5605993571 15.935799513 -2.73756991486 9.77394008436 2.00499007803 -4.95086987696 -27.1363005913 0.346673988648 0.920167994183 41.504201152 10.5670001791 3.79314982443 -28.8931003779 0.901673015849 -1.3320499946e-009 8.75209994494e-006 -1.46422003163e-008 
0.752086016289 1.56708 -1.04842171939 0.469440769285 0.486484118976 81.3920995086 2.47531007408 -15.449399544 3.32320997109 -1.37089004308 58.8007980363 -10.6551002279 0.535792001647 -11.6113002447 -0.175541998167 0.0462047989973 0.000530889001377 0.662642008108 -8.07503041984 10.2849995975 -0.143042997601 2.26377996926 4.08929017826 -1.10545000219 -2.22352005953 26.0533997116 -1.38353998031 -30.7503005302 -3.31841005565 12.5048998702 -75.4629010826 -39.8493009576 -39.7127005893 -174.728000555 59.731998707 173.774000713 10.4063003421 8.78628021622 -8.02918021371 30.4629988681 -0.760071988575 -6.17884995104 48.8639007374 -2.41828994735 17.7060991685 2.55819996919 48.2587015807 16.1410996315 -2.64346997178 9.78005993386 1.99803993366 -4.27004985398 -24.3645005431 0.811327008768 0.854428010391 37.8367993791 10.1423997618 3.70035017862 -27.9292001766 0.843123993953 -1.3320499946e-009 8.75209994494e-006 -1.46422003163e-008 
0.764204979878 1.57907 -1.04976381683 0.32513125184 -0.104472065584 81.1248888479 2.98040000189 -19.1604991598 3.53127994477 -1.3938100235 59.5542020527 -10.5394002384 1.58764001325 -13.4557996602 -0.130009996149 0.0462047989973 0.000530889001377 0.662642008108 -8.31568018241 10.724799747 -0.382140999893 2.96255997466 3.95300997507 -1.59569995664 -2.27614005034 26.0498002019 -0.98343198104 -30.309401574 -3.13466003773 12.1096001107 -76.0346015765 -38.6973007616 -40.2201016824 -174.348993358 61.304998103 172.771001093 10.5900998789 8.74170981679 -8.30365990324 30.5403985718 -0.799215002296 -6.28009982153 48.8200987343 -3.03679004367 17.2771991471 2.40579006083 48.7876997319 16.1882996537 -2.59940991555 9.78386008036 1.91652995021 -3.66606006766 -21.6057000524 1.06993995542 0.811881001142 33.9626990063 10.090200041 3.49916994482 -27.011200554 0.769433990133 -1.3320499946e-009 8.75209994494e-006 -1.46422003163e-008 
0.776300595232 1.5895 -1.05093709821 0.165361254364 -0.650487633119 80.8210069015 3.45855998789 -22.7204996231 3.6532201658 -1.34485997871 58.7689010529 -10.2966997115 1.65838999416 -14.3370007849 -0.118526994071 0.0462047989973 0.000530889001377 0.662642008108 -8.49332998763 11.2031998569 -0.570581997071 3.63306982708 3.64081995736 -2.00399009564 -2.15553000865 26.1623002478 -0.776522018944 -29.8077993116 -2.9276399922 11.6534997147 -76.6022995796 -37.6777003676 -40.7082996986 -173.951995442 62.5708985336 171.895002011 10.7448002485 8.7030799744 -8.54015008061 30.7378012841 -0.867873024328 -6.45180010509 48.7241994632 -4.29820005176 16.7843992909 2.67575990452 49.7785006333 15.7391003101 -2.65376989705 9.78025971689 1.87872997579 -3.26675995171 -18.891500697 0.788249987357 0.784970002452 30.0795998594 10.6334997546 3.11202009507 -26.1862007872 0.671411010507 -1.3320499946e-009 8.75209994494e-006 -1.46422003163e-008 
0.78842102412 1.59804 -1.05177797429 0.0567549966709 -1.18617632815 80.7679158411 3.8088601133 -25.8879998507 3.26900004031 -1.24784994815 56.8010006096 -9.94033971424 1.37262000193 -15.1013996983 -0.130368994627 0.0462047989973 0.000530889001377 0.662642008108 -8.64939981016 11.6853002217 -0.849476977016 4.37669984278 3.3480400566 -2.50943007064 -1.98303998447 26.2224998276 -0.625687002799 -29.3584992227 -2.73513004322 11.2140000935 -76.9552017936 -36.7082984489 -41.1365013331 -173.538004016 63.6877027648 170.976000059 10.7207998175 8.69575971915 -8.65956996184 30.9689007346 -0.962910037348 -6.69011010099 48.5650014141 -5.81437995787 16.4036999145 3.19063002289 51.1084989742 15.0012998609 -2.69977997229 9.77903967435 1.82652000978 -3.02983989931 -16.3300004658 -0.102763998024 0.81260099913 26.5497000397 11.50990011 2.79432003569 -25.3611993128 0.590531005285 -1.3320499946e-009 8.75209994494e-006 -1.46422003163e-008 
0.800874209817 1.60443 -1.05218561382 -0.0443102052401 -1.64751846744 80.9600422323 3.90096009162 -28.6383992087 2.26889001798 -1.13392004492 53.958600311 -9.6100795773 1.59734998093 -16.0257992081 -0.108401999018 0.0462047989973 0.000530889001377 0.662642008108 -8.85051985291 12.0712998249 -1.21067995197 5.16515980509 3.10332996001 -3.10235004131 -1.83935009325 26.2959994932 -0.482359004883 -29.0478997853 -2.59449004491 10.8818001828 -77.1836033194 -35.8016010819 -41.588400309 -173.157999612 64.5668983752 170.128004752 10.712099864 8.69641029467 -8.66470967919 31.1733009757 -1.06768001657 -6.9539901907 48.3259003969 -7.16968969912 16.0319002746 3.48347993308 52.5316986613 14.4827997104 -2.65321003498 9.78432965586 1.65260002146 -2.90861001795 -14.1199996985 -0.866991022791 1.07251995265 23.7042005428 11.9444000328 2.6834500572 -24.6672999045 0.550785974422 -1.3320499946e-009 8.75209994494e-006 -1.46422003163e-008 
0.813913278153 1.60881 -1.0522131987 -0.16069803609 -2.00939256183 81.1118636772 3.90613011793 -31.0242013612 1.06270998674 -1.0349700272 50.579900389 -9.4111998366 1.90547998479 -16.6869000481 -0.0790255021405 0.0462047989973 0.000530889001377 0.662642008108 -9.03882987588 12.3396997923 -1.49451998887 5.88931993967 2.89134991648 -3.58776005968 -1.69195994704 26.3864994997 -0.394207996485 -28.8612990172 -2.50165005829 10.6554997939 -77.5038982104 -34.9935009106 -42.1652985769 -172.908998235 65.080897431 169.570005618 10.9148002418 8.66985025031 -8.6834798928 31.3573984795 -1.16150002862 -7.18768980891 48.0344015835 -8.41655012362 15.5366005692 3.56512993541 53.7576015041 14.193500218 -2.56767002648 9.79247038758 1.43518005241 -2.80004992407 -12.2668003295 -0.943444958709 1.47755998883 21.5558994356 11.7219996819 2.56925996645 -24.3377996261 0.523158019312 -1.3320499946e-009 8.75209994494e-006 -1.46422003163e-008 
0.8275471971 1.61138 -1.05183006013 -0.19761247381 -2.30513612436 81.1179152248 4.01081984243 -32.9482007636 0.0727007002783 -0.946772007887 47.0251011147 -8.98991974501 2.02083995888 -17.025699629 -0.0657111022304 0.0462047989973 0.000530889001377 0.662642008108 -9.13589967059 12.5690003418 -1.64313999601 6.43485995529 2.77409990098 -3.88998013564 -1.46498998616 26.359699545 -0.403022008764 -28.7362997252 -2.43054010507 10.4768997386 -77.9179989194 -34.2986008795 -42.8202010201 -172.786997396 65.3175976366 169.283001069 11.0642003846 8.63887021978 -8.82719987954 31.5361991716 -1.23179003898 -7.35706996259 47.8436992868 -9.97427038649 14.9979001342 3.8005601528 54.8795010564 13.7137998108 -2.48360000275 9.79852961915 1.35530002958 -2.64741995555 -10.6614002236 -0.682742988031 1.76181997565 20.1287997105 11.4054998148 2.38949002782 -24.4259005287 0.498481986584 -1.3320499946e-009 8.75209994494e-006 -1.46422003163e-008 
